# xmcd CD database file
#
# Track frame offsets:
#	150
#	15299
#	31909
#	46888
#	61384
#	78708
#	93273
#	103252
#	124646
#	146656
#	157846
#	181462
#	195678
#
# Disc length: 2789 seconds
#
# Revision: 0
# Processed by: cddbd v1.5.2PL0 Copyright (c) Steve Scherf et al.
# Submitted via: CDex 1.51
#
DISCID=a30ae30d
DTITLE=Isabeau et les chercheurs d'or - Isabeau et les chercheurs d'or
DYEAR=2010
DGENRE=Country
TTITLE0=L'amour m'a rendu malheureuse
TTITLE1=Bazou
TTITLE2=Ma Guitare pour un Fusil !?
TTITLE3=Je n'peux plus te chasser de mon coeur
TTITLE4=Écho du lac
TTITLE5=Septembre
TTITLE6=Je serai ton ombre
TTITLE7=Complainte
TTITLE8=Fille de mauvaise vie
TTITLE9=J'vais nous bâtir une maison
TTITLE10=Cafard #17
TTITLE11=Chauffeur de van
TTITLE12=Marguerite
EXTD=YEAR: 2010
EXTT0=
EXTT1=
EXTT2=
EXTT3=
EXTT4=
EXTT5=
EXTT6=
EXTT7=
EXTT8=
EXTT9=
EXTT10=
EXTT11=
EXTT12=
PLAYORDER=
